<svg width="1536" height="1536" xmlns="http://www.w3.org/2000/svg">

 <g>
  <title>background</title>
  <rect fill="none" id="canvas_background" height="1538" width="1538" y="-1" x="-1"/>
 </g>
 <g>
  <title>Layer 1</title>
  <path stroke="null" id="svg_1" d="m0,1533.116752l375.077166,-320.886721l0,-656.503988l-375.077166,320.897897l0,656.492811zm759.847554,-662.963969l-367.54636,-314.42674l0,656.503988l367.54636,314.437916l0,-656.515164zm121.181425,-624.863491c0,67.751569 -52.844741,122.661411 -118.06152,122.661411c-65.206021,0 -118.06152,-54.921018 -118.06152,-122.661411c0,-67.740393 52.855499,-122.661411 118.06152,-122.661411c65.206021,0.011176 118.06152,54.932194 118.06152,122.661411m90.810761,122.661411c20.107252,-36.099896 31.66166,-77.955657 31.66166,-122.661411c0,-135.469609 -105.710998,-245.289292 -236.101522,-245.289292c-130.412041,0 -236.123039,109.819683 -236.123039,245.289292c0,59.581593 20.440759,114.167318 54.447726,156.671313l181.87972,272.593331l184.504744,-276.560967c6.637867,-8.62821 12.716304,-17.714655 18.192275,-27.248157l1.871943,-2.79411l-0.333507,0zm-194.337825,1156.504309l361.812189,-309.520283l0,-656.481635l-361.812189,309.53146l0,656.470458zm757.276322,8.66174l0,-656.492811l-379.541858,-324.675534l0,656.481635l379.541858,324.68671z"/>
 </g>
</svg>